# xmcd
#
# Track frame offsets:
#	150
#	24597
#	48198
#	70284
#	91238
#	113777
#	136408
#	158353
#	182116
#	198830
#
# Disc length: 2940 seconds
#
# Revision: 0
# Processed by: cddbd v1.5.2PL0 Copyright (c) Steve Scherf et al.
# Submitted via: SynApp - FreeCDDB Version: 2.3
#
DISCID=7a0b7a0a
DTITLE=Robert Cray - Time Will Tell
DYEAR=2003
DGENRE=Blues
TTITLE0=Time Makes Two
TTITLE1=Survivor
TTITLE2=Up In The Sky
TTITLE3=Back Door Slam
TTITLE4=I Didn't Know
TTITLE5=Your Pal
TTITLE6=Lotta Lovin'
TTITLE7=What You Need (Good Man)
TTITLE8=Spare Some Love
TTITLE9=Distant Shore
EXTD=Audio Archive ForceAudio 
EXTT0=
EXTT1=
EXTT2=
EXTT3=
EXTT4=
EXTT5=
EXTT6=
EXTT7=
EXTT8=
EXTT9=
PLAYORDER=
